<svg viewBox="0 0 48 48" xml:space="preserve" xmlns="http://www.w3.org/2000/svg"><g fill="#3d8897" class="fill-241f20"><path d="M23.262 30.516c-.899 0-1.585.225-2.056.674-.471.451-.707 1.115-.707 1.994 0 .848.241 1.504.723 1.971.482.466 1.161.697 2.04.697.858 0 1.528-.237 2.009-.713.481-.478.723-1.129.723-1.955 0-.857-.238-1.518-.715-1.979-.476-.46-1.148-.689-2.017-.689zM29.329 13.703c-1.271-1.036-2.985-1.554-5.141-1.554-2.616 0-5.092.654-7.425 1.962l1.711 3.438c2.009-1.025 3.799-1.539 5.368-1.539.9 0 1.602.178 2.104.534.503.355.754.874.754 1.554 0 .607-.176 1.156-.525 1.648-.351.492-1.074 1.13-2.174 1.915-1.141.837-1.926 1.627-2.354 2.37-.43.742-.644 1.617-.644 2.621v1.162h4.159v-.941c0-.628.134-1.137.399-1.523.268-.387.902-.952 1.907-1.695 1.466-1.046 2.459-1.988 2.982-2.826.522-.838.784-1.832.784-2.982.002-1.727-.632-3.109-1.905-4.144z"></path><path d="M24 0C10.745 0 0 10.745 0 24s10.745 24 24 24 24-10.745 24-24S37.255 0 24 0zm0 44C12.954 44 4 35.046 4 24 4 12.955 12.954 4 24 4s20 8.955 20 20c0 11.046-8.954 20-20 20z"></path></g></svg>